<svg width="220" height="217" viewBox="0 0 220 217" fill="none" xmlns="http://www.w3.org/2000/svg">
<path d="M219.658 46.4921H218.581V17.0436C218.581 7.63066 210.942 0 201.52 0H139.062C129.639 0 122 7.63066 122 17.0436V178.601C122 188.014 129.639 195.644 139.062 195.644H201.519C210.942 195.644 218.581 188.014 218.581 178.601V67.454H219.658L219.658 46.4921Z" fill="#3F3D56"/>
<path d="M202.208 4.43378H194.055C194.817 6.29855 194.599 8.41978 193.475 10.0914C192.35 11.7631 190.466 12.7658 188.45 12.7658H152.669C150.653 12.7656 148.769 11.763 147.645 10.0916C146.521 8.42013 146.303 6.29922 147.064 4.43458H139.448C132.411 4.43458 126.706 10.1333 126.706 17.1629V178.482C126.706 185.512 132.411 191.211 139.448 191.211H202.206C209.243 191.211 214.948 185.512 214.948 178.482V178.482V17.1621C214.948 10.1325 209.243 4.43378 202.206 4.43378L202.208 4.43378Z" fill="white"/>
<ellipse cx="170.936" cy="169.829" rx="6.98968" ry="6.99677" transform="rotate(-80.7827 170.936 169.829)" fill="#E6E6E6"/>
<rect x="132.143" y="88.8362" width="77.368" height="15.2588" fill="#E6E6E6"/>
<path d="M133.792 102.448H207.862V90.4849H133.792V102.448Z" fill="white"/>
<path d="M140.276 91.8089C142.796 91.8089 144.839 93.8496 144.839 96.3669C144.839 98.8842 142.796 100.925 140.276 100.925C137.756 100.925 135.714 98.8842 135.714 96.3669C135.713 95.158 136.194 93.9987 137.05 93.1439C137.906 92.2891 139.066 91.8089 140.276 91.8089Z" fill="#6B55FF"/>
<rect x="151.187" y="94.5832" width="45.0321" height="0.990892" fill="#E6E6E6"/>
<rect x="151.187" y="97.1593" width="45.0321" height="0.990892" fill="#E6E6E6"/>
<rect x="132.143" y="110.611" width="77.368" height="15.2588" fill="#E6E6E6"/>
<path d="M133.792 124.222H207.862V112.26H133.792V124.222Z" fill="white"/>
<ellipse cx="140.276" cy="118.142" rx="4.56282" ry="4.55794" fill="#6B55FF"/>
<rect x="151.187" y="116.358" width="45.0321" height="0.990892" fill="#E6E6E6"/>
<rect x="151.187" y="118.934" width="45.0321" height="0.990892" fill="#E6E6E6"/>
<rect x="132.143" y="132.386" width="77.368" height="15.2588" fill="#E6E6E6"/>
<path d="M133.792 145.997H207.862V134.035H133.792V145.997Z" fill="white"/>
<ellipse cx="140.276" cy="139.917" rx="4.56282" ry="4.55794" fill="#6B55FF"/>
<rect x="151.187" y="138.133" width="45.0321" height="0.990884" fill="#E6E6E6"/>
<rect x="151.187" y="140.709" width="45.0321" height="0.990884" fill="#E6E6E6"/>
<g clip-path="url(#clip0_331_11459)">
<path d="M141.426 76.5486L141.292 76.5184C142.784 69.8811 146.535 63.8539 151.853 59.547C155.874 56.2958 160.656 54.1214 165.749 53.2286C170.842 52.3357 176.078 52.7537 180.965 54.4432C185.852 56.1327 190.228 59.0381 193.682 62.8859C197.136 66.7337 199.554 71.3972 200.708 76.4374L200.574 76.4678C197.415 62.596 185.257 52.9077 171.009 52.9077C156.948 52.9077 144.506 62.8501 141.426 76.5486Z" fill="#3F3D56"/>
<path d="M160.616 37.4873C162.674 37.4873 164.342 35.8191 164.342 33.7612C164.342 31.7033 162.674 30.0351 160.616 30.0351C158.558 30.0351 156.89 31.7033 156.89 33.7612C156.89 35.8191 158.558 37.4873 160.616 37.4873Z" fill="#FF6584"/>
<path d="M144.563 75.7021C144.679 76.1317 145.077 76.3977 145.077 76.3977C145.077 76.3977 145.287 75.9673 145.171 75.5377C145.054 75.1081 144.656 74.8421 144.656 74.8421C144.656 74.8421 144.447 75.2725 144.563 75.7021Z" fill="#3F3D56"/>
<path d="M144.734 75.6098C145.053 75.9202 145.092 76.3973 145.092 76.3973C145.092 76.3973 144.614 76.3712 144.295 76.0608C143.976 75.7504 143.937 75.2732 143.937 75.2732C143.937 75.2732 144.415 75.2993 144.734 75.6098Z" fill="#6C63FF"/>
<path d="M153.413 75.7021C153.529 76.1317 153.927 76.3977 153.927 76.3977C153.927 76.3977 154.137 75.9673 154.02 75.5377C153.904 75.1081 153.506 74.8421 153.506 74.8421C153.506 74.8421 153.296 75.2725 153.413 75.7021Z" fill="#3F3D56"/>
<path d="M153.583 75.6098C153.902 75.9202 153.941 76.3973 153.941 76.3973C153.941 76.3973 153.463 76.3712 153.144 76.0608C152.825 75.7504 152.786 75.2732 152.786 75.2732C152.786 75.2732 153.265 75.2993 153.583 75.6098Z" fill="#6C63FF"/>
<path d="M155.167 41.4847L153.766 40.3637L161.613 33.3582H181.508V39.5231L168.618 48.21L155.167 41.4847Z" fill="#3F3D56"/>
<path d="M185.136 37.2879V33.4981H182.494V34.4263L181.508 33.3582L175.063 40.3637L172.541 42.0451L168.631 70.6151L174.528 76.5124H188.234V40.644L185.136 37.2879Z" fill="#CCCCCC"/>
<path d="M175.063 40.3637H153.766V76.5124H175.063V40.3637Z" fill="#F2F2F2"/>
<path d="M165.956 67.6854H162.033V76.5124H165.956V67.6854Z" fill="#CCCCCC"/>
<path d="M157.829 70.2074V68.8063H156.148V70.2074H157.689H157.829Z" fill="#3F3D56"/>
<path d="M157.689 71.3283H156.148V72.7294H157.829V71.3283H157.689Z" fill="#3F3D56"/>
<path d="M160.632 68.8063H158.95V70.2074H160.632V68.8063Z" fill="#3F3D56"/>
<path d="M160.632 71.3283H158.95V72.7294H160.632V71.3283Z" fill="#3F3D56"/>
<path d="M169.319 70.2074V68.8063H167.637V70.2074H169.179H169.319Z" fill="#3F3D56"/>
<path d="M169.179 71.3283H167.637V72.7294H169.319V71.3283H169.179Z" fill="#3F3D56"/>
<path d="M172.121 68.8063H170.44V70.2074H172.121V68.8063Z" fill="#3F3D56"/>
<path d="M172.121 71.3283H170.44V72.7294H172.121V71.3283Z" fill="#3F3D56"/>
<path d="M181.088 42.1852V40.7841H179.407V42.1852H180.948H181.088Z" fill="#3F3D56"/>
<path d="M180.948 43.3061H179.407V44.7072H181.088V43.3061H180.948Z" fill="#3F3D56"/>
<path d="M183.89 40.7841H182.209V42.1852H183.89V40.7841Z" fill="#3F3D56"/>
<path d="M183.89 43.3061H182.209V44.7072H183.89V43.3061Z" fill="#3F3D56"/>
<path d="M181.088 50.0314V48.6303H179.407V50.0314H180.948H181.088Z" fill="#3F3D56"/>
<path d="M180.948 51.1523H179.407V52.5534H181.088V51.1523H180.948Z" fill="#3F3D56"/>
<path d="M183.89 48.6303H182.209V50.0314H183.89V48.6303Z" fill="#3F3D56"/>
<path d="M183.89 51.1523H182.209V52.5534H183.89V51.1523Z" fill="#3F3D56"/>
<path d="M181.088 57.8776V56.4765H179.407V57.8776H180.948H181.088Z" fill="#3F3D56"/>
<path d="M180.948 58.9985H179.407V60.3996H181.088V58.9985H180.948Z" fill="#3F3D56"/>
<path d="M183.89 56.4765H182.209V57.8776H183.89V56.4765Z" fill="#3F3D56"/>
<path d="M183.89 58.9985H182.209V60.3996H183.89V58.9985Z" fill="#3F3D56"/>
<path d="M181.088 65.7239V64.3228H179.407V65.7239H180.948H181.088Z" fill="#3F3D56"/>
<path d="M180.948 66.8447H179.407V68.2458H181.088V66.8447H180.948Z" fill="#3F3D56"/>
<path d="M183.89 64.3228H182.209V65.7239H183.89V64.3228Z" fill="#3F3D56"/>
<path d="M183.89 66.8447H182.209V68.2458H183.89V66.8447Z" fill="#3F3D56"/>
<path d="M172.401 42.1852H156.148V45.5478H172.401V42.1852Z" fill="#3F3D56"/>
<path d="M172.401 48.9105H156.148V52.2732H172.401V48.9105Z" fill="#3F3D56"/>
<path d="M172.401 55.6358H156.148V58.9985H172.401V55.6358Z" fill="#3F3D56"/>
<path d="M172.401 62.3612H156.148V65.7239H172.401V62.3612Z" fill="#3F3D56"/>
<path d="M210 76.3714H132V76.5086H210V76.3714Z" fill="#3F3D56"/>
<path d="M145.465 60.5303H145.062V76.4495H145.465V60.5303Z" fill="#3F3D56"/>
<path d="M149.185 62.559C149.21 68.1256 145.294 72.6563 145.294 72.6563C145.294 72.6563 141.336 68.1619 141.31 62.5953C141.285 57.0288 145.201 52.498 145.201 52.498C145.201 52.498 149.159 56.9925 149.185 62.559Z" fill="#6C63FF"/>
<path opacity="0.1" d="M149.185 62.559C149.21 68.1256 145.294 72.6563 145.294 72.6563C145.294 72.6563 141.336 68.1619 141.31 62.5953C141.285 57.0288 145.201 52.498 145.201 52.498C145.201 52.498 149.159 56.9925 149.185 62.559Z" fill="black"/>
<path d="M140.226 60.5303H139.823V76.4495H140.226V60.5303Z" fill="#3F3D56"/>
<path d="M143.945 62.559C143.971 68.1256 140.055 72.6563 140.055 72.6563C140.055 72.6563 136.097 68.1619 136.071 62.5953C136.045 57.0288 139.962 52.498 139.962 52.498C139.962 52.498 143.92 56.9925 143.945 62.559Z" fill="#6C63FF"/>
<path d="M196.866 40.3412C193.692 40.3559 191.108 40.4028 191.108 40.4028C191.108 40.4028 194.179 36.3342 196.855 37.8416C199.531 39.3489 202.604 40.3498 202.604 40.3498C202.604 40.3498 200.041 40.3266 196.866 40.3412Z" fill="#F2F2F2"/>
<path d="M143.975 48.1618C140.8 48.1765 138.216 48.2234 138.216 48.2234C138.216 48.2234 141.287 44.1548 143.963 45.6622C146.639 47.1695 149.712 48.1704 149.712 48.1704C149.712 48.1704 147.149 48.1472 143.975 48.1618Z" fill="#F2F2F2"/>
<path d="M155.5 31.8346C152.325 31.8493 149.741 31.8962 149.741 31.8962C149.741 31.8962 152.813 27.8276 155.488 29.335C158.164 30.8423 161.238 31.8432 161.238 31.8432C161.238 31.8432 158.674 31.82 155.5 31.8346Z" fill="#F2F2F2"/>
<path d="M203.408 60.5303H203.005V76.4495H203.408V60.5303Z" fill="#3F3D56"/>
<path d="M207.127 62.559C207.153 68.1256 203.237 72.6563 203.237 72.6563C203.237 72.6563 199.279 68.1619 199.253 62.5953C199.227 57.0288 203.144 52.498 203.144 52.498C203.144 52.498 207.102 56.9925 207.127 62.559Z" fill="#6C63FF"/>
<path d="M188.574 66.5682H192.641V65.5865H194.885V66.5682H199.092V70.916H194.885V76.3859H192.641V70.916H188.574L186.47 68.5317L188.574 66.5682Z" fill="#3F3D56"/>
</g>
<path fill-rule="evenodd" clip-rule="evenodd" d="M67.8778 41.1114C65.3246 38.7661 63.4202 35.7415 63.2309 32.1136C62.6856 21.6605 77.3922 22.169 80.8408 27.0552C84.2893 31.9414 85.585 45.2505 82.0729 46.6307C80.6723 47.1812 77.4789 46.6462 74.1108 45.1411L77.7891 58.8251L66.1664 60.2522L67.8778 41.1114Z" fill="#915B3C"/>
<path fill-rule="evenodd" clip-rule="evenodd" d="M73.4759 21.84C71.9133 21.7769 67.7675 22.1106 67.0069 22.2041C66.5208 22.2638 66.0077 22.4396 65.665 22.0286C65.3844 21.692 65.3948 21.0633 65.2724 20.6478C65.1302 20.1651 64.9544 19.693 64.7775 19.2223C64.274 17.8829 63.6076 16.6316 62.7495 15.4853C61.1394 13.3347 58.9742 11.7612 56.3922 11.0079C53.5409 10.1762 50.4435 10.2859 47.5594 10.8797C44.4729 11.5152 41.7773 12.8908 38.9528 14.2207C36.2612 15.4879 33.368 16.2119 30.379 16.1214C27.3675 16.0303 24.9375 14.7026 22.2577 13.4882C19.5143 12.2449 16.4726 11.585 13.4842 12.1895C10.6945 12.7538 8.24151 14.2355 6.10332 16.0749C4.10281 17.796 2.51958 19.7655 1.80671 22.3513C1.03979 25.1329 1.39761 28.0388 3.48062 30.1581C6.49986 33.2301 11.4396 33.5138 15.4489 32.933C17.768 32.5972 19.9996 31.8923 22.1001 30.8507C24.9014 29.4614 27.2171 27.4054 29.7822 25.6529C30.986 24.8306 32.2476 24.1217 33.592 23.5575C34.8966 23.0099 36.2062 22.6714 37.53 23.3376C38.9305 24.0423 40.1945 24.7483 41.7417 25.1071C43.226 25.4514 44.7663 25.5567 46.2784 25.3592C49.2203 24.9749 52.0105 23.701 54.7951 22.7352C57.0658 21.9478 59.4999 21.142 61.9368 21.3317C62.9536 21.4109 64.4538 21.648 64.9388 22.6351C59.0416 24.4688 57.5887 32.2188 59.9613 37.4858C61.2419 40.3286 67.1826 43.1061 69.1366 41.2891C70.3746 40.1379 69.391 38.9469 68.7524 38.1594C67.5294 36.6513 66.9219 34.5957 68.6741 33.2261C70.1855 32.0447 72.1874 34.1636 72.2195 34.157C72.6637 34.0666 76.2701 31.399 78.5476 27.8727C81.2009 27.7055 81.3873 25.9195 80.5839 24.5763C79.7805 23.2331 75.6351 21.9275 73.4759 21.84Z" fill="#191847"/>
<path fill-rule="evenodd" clip-rule="evenodd" d="M70.1458 100.144L88.0185 161.732L96.4249 207.973H104.862L96.4399 100.144H70.1458Z" fill="#784931"/>
<path fill-rule="evenodd" clip-rule="evenodd" d="M62.1134 100.144C63.3605 132.139 62.8687 149.589 62.5896 152.496C62.3104 155.403 60.7259 174.871 49.9282 208.949H58.704C73.0037 176.257 77.9956 156.789 79.6357 152.496C81.2758 148.203 86.1196 130.753 93.1914 100.144H62.1134Z" fill="#915B3C"/>
<path fill-rule="evenodd" clip-rule="evenodd" d="M69.762 100.144C74.4109 121.337 82.4517 155.165 93.8841 201.63H106.225C107.137 153.938 103.259 122.549 96.5441 100.144H69.762Z" fill="#69A1AC"/>
<path fill-rule="evenodd" clip-rule="evenodd" d="M62.0512 100.144C63.2726 132.139 60.1073 163.659 50.3025 202.128H63.4695C77.7955 169.924 88.0634 138.559 95.0809 100.144H62.0512Z" fill="#C5CFD6"/>
<path fill-rule="evenodd" clip-rule="evenodd" d="M48.6774 215.292L49.1616 207.485C51.9966 208.314 55.5475 207.989 59.8144 206.509C64.4022 209.759 70.1778 211.978 77.141 213.166L77.141 213.166C77.6722 213.257 78.0294 213.761 77.9387 214.293C77.9329 214.327 77.9251 214.361 77.9156 214.395L77.2462 216.756H59.8144H49.6458L48.6774 215.292Z" fill="#191847"/>
<path fill-rule="evenodd" clip-rule="evenodd" d="M94.5414 215.292L95.0256 207.485C97.8606 208.314 101.412 207.989 105.678 206.509C110.266 209.759 116.042 211.978 123.005 213.166L123.005 213.166C123.536 213.257 123.893 213.761 123.803 214.293C123.797 214.327 123.789 214.361 123.78 214.395L123.11 216.756H105.678H95.5098L94.5414 215.292Z" fill="#191847"/>
<path fill-rule="evenodd" clip-rule="evenodd" d="M110.438 89.0677L127.75 97.6201C132.105 98.0089 135.824 98.7921 138.907 99.9698C139.672 100.454 140.683 101.529 137.913 101.801C135.144 102.073 132.243 102.483 132.031 103.481C131.818 104.48 133.668 105.303 133.127 106.695C132.767 107.623 129.996 105.944 124.815 101.658L108.527 98.0407L110.438 89.0677ZM51.6581 99.8327L61.7062 98.1016C59.0354 119.21 57.5608 130.419 57.2826 131.731C56.6566 134.683 59.7494 138.464 61.1532 140.542C58.1347 142.586 57.5263 137.094 53.7316 139.746C50.2679 142.167 47.9584 145.854 43.1247 143.933C42.5304 143.696 41.7235 142.555 42.971 141.332C46.079 138.284 50.4256 133.143 50.8677 131.625C51.4707 129.555 51.7341 118.958 51.6581 99.8327Z" fill="#915B3C"/>
<path fill-rule="evenodd" clip-rule="evenodd" d="M72.7642 52.6669L76.7935 51.2216C94.5578 61.8207 105.401 86.2883 126.687 96.5094L123.133 102.949C89.6355 104.67 76.0077 74.8966 72.7642 52.6669Z" fill="#1F28CF"/>
<path fill-rule="evenodd" clip-rule="evenodd" d="M63.8588 108.076C80.5186 105.138 92.7733 102.977 100.623 101.593C102.303 101.297 101.558 98.9272 101.1 97.746C95.806 84.1132 82.1802 70.8141 78.6343 50.7048L67.7367 50.9117C61.4528 66.5651 61.4821 84.4682 63.8588 108.076Z" fill="#DDE3E9"/>
<path fill-rule="evenodd" clip-rule="evenodd" d="M56.9404 67.1128C55.3221 66.9417 53.9204 66.1242 52.7352 64.6603C47.6261 58.35 48.3469 54.2526 52.2659 52.2565C56.1848 50.2604 60.3385 52.2162 66.938 51.0525C67.297 50.9892 67.6297 50.9538 67.9362 50.9461L71.2894 50.5502C86.506 81.1511 92.9304 102.225 90.5626 113.771L61.6265 118.874C60.617 123.174 59.5695 126.826 58.4841 129.832L50.5995 131.222C45.6269 107.36 47.7405 85.9904 56.9404 67.1128Z" fill="#2B44FF"/>
<path fill-rule="evenodd" clip-rule="evenodd" d="M65.0044 101.184C67.257 108.638 69.7105 113.903 72.3649 116.98L61.6266 118.874C62.8042 113.858 63.9301 107.961 65.0044 101.184L65.0044 101.184Z" fill="black" fill-opacity="0.1"/>
<defs>
<clipPath id="clip0_331_11459">
<rect width="78" height="47.5486" fill="white" transform="translate(132 29)"/>
</clipPath>
</defs>
</svg>
